<?xml version="1.0" standalone="no"?>
<!DOCTYPE svg PUBLIC "-//W3C//DTD SVG 20010904//EN"
 "http://www.w3.org/TR/2001/REC-SVG-20010904/DTD/svg10.dtd">
<svg version="1.0" xmlns="http://www.w3.org/2000/svg"
 width="456.000000pt" height="456.000000pt" viewBox="0 0 456.000000 456.000000"
 preserveAspectRatio="xMidYMid meet">
<metadata>
Created by potrace 1.14, written by Peter Selinger 2001-2017
</metadata>
<g transform="translate(0.000000,456.000000) scale(0.100000,-0.100000)"
fill="#000000" stroke="none">
<path d="M1939 4407 c-19 -12 -39 -34 -46 -47 -10 -23 -14 -42 -29 -167 -3
-27 -7 -60 -10 -74 -2 -14 -6 -50 -9 -80 -3 -30 -7 -63 -10 -74 -2 -11 -4 -24
-4 -29 -1 -5 -4 -7 -7 -3 -10 9 -216 -68 -314 -117 l-89 -46 -73 57 c-40 31
-87 68 -104 82 -18 14 -46 37 -65 51 -18 14 -37 30 -43 36 -41 40 -118 46
-162 12 -61 -47 -425 -418 -434 -443 -19 -49 -12 -88 25 -140 20 -27 39 -52
43 -55 4 -3 20 -23 36 -45 17 -22 56 -73 88 -112 l58 -73 -50 -99 c-28 -55
-50 -102 -50 -105 0 -2 -4 -15 -9 -28 -5 -13 -9 -26 -10 -30 -1 -4 -10 -28
-21 -53 -11 -25 -17 -45 -13 -45 3 0 -1 -7 -8 -17 -8 -9 -13 -18 -11 -20 9
-13 -2 -24 -25 -23 -16 1 -30 1 -33 0 -3 -1 -16 -3 -30 -5 -310 -35 -325 -38
-352 -62 -46 -42 -48 -56 -48 -373 0 -320 2 -331 49 -375 12 -10 27 -20 34
-21 29 -5 96 -14 142 -19 52 -6 84 -10 170 -21 28 -4 58 -6 67 -6 25 1 35 -16
53 -93 9 -35 63 -163 100 -238 l45 -88 -113 -142 c-62 -78 -120 -155 -130
-170 -21 -33 -21 -90 1 -126 20 -33 412 -425 439 -440 48 -25 97 -14 165 36
34 26 65 50 68 53 3 3 49 40 103 83 l98 76 98 -49 c55 -27 141 -63 192 -80
135 -44 123 -31 134 -139 3 -30 7 -66 10 -80 4 -24 15 -110 19 -156 9 -83 17
-101 59 -128 l41 -27 303 0 c408 0 389 -10 418 230 3 30 8 66 10 80 2 14 7 50
10 80 11 103 12 105 55 114 59 11 240 85 322 131 l47 26 108 -85 c59 -47 115
-92 123 -99 65 -56 107 -77 152 -77 l47 0 220 218 c121 121 225 231 231 246
18 49 12 90 -22 137 -18 24 -35 46 -38 49 -3 3 -37 46 -74 95 -38 50 -80 102
-93 116 l-24 27 49 98 c27 55 67 149 87 209 27 78 43 111 54 111 18 1 108 11
161 19 19 2 60 7 90 10 57 7 108 15 125 20 6 2 19 6 31 10 12 4 31 24 43 45
20 36 21 50 21 341 0 284 -1 306 -20 336 -27 46 -56 61 -130 68 -36 3 -76 8
-90 10 -24 4 -47 7 -165 22 -27 3 -58 6 -67 7 -12 0 -24 24 -44 86 -15 47 -31
89 -35 95 -5 5 -9 15 -9 23 0 7 -23 58 -50 113 l-50 100 100 127 c56 70 110
138 121 152 29 36 39 65 37 112 -1 39 -11 49 -225 266 -224 225 -224 225 -274
230 -44 4 -54 1 -104 -33 -30 -21 -62 -45 -72 -54 -10 -9 -62 -51 -116 -93
l-98 -77 -97 49 c-54 26 -147 65 -208 85 -94 32 -110 40 -111 59 0 11 -3 39
-6 61 -4 22 -9 63 -12 90 -3 28 -7 61 -10 75 -2 14 -6 52 -10 84 -7 75 -21
104 -64 133 -34 23 -38 23 -341 23 -303 0 -307 0 -341 -23z m620 -96 c12 -12
21 -41 26 -87 4 -38 8 -76 10 -85 2 -8 6 -40 9 -70 8 -68 15 -127 21 -158 7
-40 58 -74 157 -106 51 -16 141 -53 200 -82 89 -44 114 -53 158 -52 56 2 35
-12 292 189 42 33 81 60 86 60 14 0 386 -371 395 -393 5 -14 -15 -47 -81 -130
-166 -210 -162 -204 -162 -257 0 -37 12 -73 54 -161 30 -63 68 -156 85 -207
43 -130 60 -145 179 -158 29 -3 61 -7 70 -9 9 -1 46 -6 82 -10 36 -5 74 -9 85
-11 11 -1 30 -3 43 -3 12 -1 31 -10 42 -21 19 -19 20 -33 20 -269 0 -137 -4
-261 -9 -274 -13 -32 -11 -32 -188 -52 -27 -3 -59 -8 -73 -10 -36 -6 -133 -18
-150 -18 -31 -1 -72 -63 -104 -158 -18 -52 -56 -144 -84 -204 -63 -130 -69
-190 -26 -240 14 -16 47 -57 72 -90 25 -33 50 -64 56 -70 21 -19 96 -124 96
-134 0 -14 -387 -401 -401 -401 -6 0 -64 41 -128 92 -208 165 -197 158 -251
158 -50 0 -92 -13 -122 -38 -9 -7 -22 -15 -30 -16 -7 -2 -40 -15 -73 -30 -59
-28 -138 -57 -162 -60 -7 -1 -16 -5 -19 -9 -4 -4 -15 -7 -24 -7 -21 0 -87 -60
-87 -80 0 -8 -3 -35 -6 -60 -4 -25 -9 -67 -12 -95 -3 -27 -8 -59 -9 -71 -2
-11 -7 -51 -11 -89 -12 -109 1 -105 -305 -105 -247 0 -261 1 -280 20 -11 11
-20 30 -21 43 0 12 -2 29 -4 37 -1 8 -6 44 -9 80 -4 36 -9 79 -11 95 -3 17 -7
55 -11 85 -3 30 -7 59 -7 65 -4 23 -69 71 -113 84 -27 8 -53 16 -59 20 -5 3
-16 6 -24 8 -21 3 -108 41 -193 84 -103 52 -159 52 -226 1 -26 -20 -52 -40
-58 -46 -37 -34 -214 -166 -223 -166 -16 0 -401 388 -401 403 0 7 10 23 23 37
12 14 35 43 52 65 16 22 35 47 42 55 140 177 133 165 133 219 0 40 -10 70 -49
150 -27 54 -65 145 -84 202 -33 96 -73 161 -103 166 -6 1 -35 4 -66 7 -31 3
-71 8 -89 11 -56 8 -203 25 -216 25 -7 0 -22 9 -33 20 -19 19 -20 33 -20 278
0 272 3 292 46 298 58 8 104 14 149 20 28 3 60 7 73 9 13 2 54 7 92 11 61 6
74 11 105 41 31 30 40 50 36 76 0 4 4 7 11 7 6 0 9 3 5 6 -8 8 73 218 103 264
25 39 40 87 40 130 0 43 -6 55 -74 143 -40 53 -86 111 -101 129 -14 18 -32 41
-40 50 -31 38 -37 59 -23 76 29 38 379 382 388 382 8 0 139 -95 150 -109 3 -4
21 -18 40 -31 19 -14 44 -32 55 -42 11 -9 33 -28 50 -42 42 -36 119 -34 195 5
72 37 164 77 220 95 25 8 52 18 60 21 20 8 27 10 44 12 19 2 83 64 83 81 1 25
14 133 19 162 3 15 7 43 9 62 11 123 19 160 36 177 18 18 37 19 279 19 241 0
261 -1 279 -19z"/>
<path d="M2243 3843 c-9 -21 -22 -60 -30 -88 -21 -76 -21 -76 -38 -139 -9 -32
-18 -73 -19 -90 -5 -47 -16 -76 -29 -77 -119 -10 -251 -46 -367 -102 -189 -90
-398 -288 -517 -492 -60 -101 -115 -271 -130 -394 -17 -154 -3 -418 28 -498 5
-14 7 -29 3 -34 -3 -5 0 -9 7 -9 7 0 10 -3 7 -6 -10 -9 60 -173 104 -244 89
-143 257 -312 401 -403 74 -46 200 -101 284 -123 l72 -18 0 -142 c0 -114 4
-149 18 -179 16 -34 16 -38 1 -49 -16 -12 -21 -27 -19 -58 1 -17 21 -18 271
-18 l270 0 0 35 c0 24 -5 35 -15 35 -19 0 -19 23 1 61 12 24 15 60 13 172 l-2
142 44 13 c147 44 275 108 382 190 67 51 186 167 237 232 53 66 157 240 144
240 -3 0 -2 6 4 13 12 14 62 169 68 212 23 157 23 401 0 510 -17 81 -29 122
-42 153 -9 21 -17 42 -18 47 -4 17 -61 127 -89 171 -104 166 -312 355 -478
435 -33 16 -61 29 -64 29 -3 0 -24 9 -47 19 -43 18 -102 34 -168 46 -19 4 -42
8 -50 10 -8 2 -20 4 -27 4 -12 1 -27 46 -37 112 -5 35 -64 236 -85 292 -8 21
-17 27 -41 27 -26 0 -33 -6 -47 -37z m72 -208 c9 -33 18 -68 20 -78 2 -10 6
-26 9 -35 3 -9 7 -33 10 -52 3 -19 8 -53 12 -74 3 -22 7 -82 8 -133 2 -56 8
-98 16 -108 9 -10 12 -55 12 -152 -1 -92 3 -148 12 -168 7 -16 23 -52 35 -80
18 -41 22 -72 24 -172 1 -67 0 -121 -3 -121 -38 3 -54 -9 -116 -87 -37 -46
-70 -82 -74 -80 -4 2 -27 30 -51 62 -65 85 -87 108 -106 108 -16 0 -18 12 -16
120 1 113 4 125 36 201 35 81 35 83 34 224 0 112 3 145 14 154 10 8 14 39 16
115 1 57 7 134 14 170 6 36 13 73 14 81 3 13 25 95 30 110 1 3 6 20 10 38 10
43 20 32 40 -43z m-187 -357 c0 -35 -6 -69 -12 -77 -7 -9 -11 -69 -12 -160 -1
-127 -5 -153 -24 -196 -12 -27 -27 -63 -34 -80 -7 -17 -13 -87 -15 -160 -1
-71 -5 -133 -8 -138 -2 -4 -12 -7 -21 -6 -10 1 -22 1 -27 0 -12 -1 -14 -345
-3 -357 4 -3 18 -7 30 -8 l23 -1 0 -427 0 -426 -25 3 c-125 18 -348 147 -479
277 -123 122 -243 326 -276 468 -20 87 -25 111 -24 117 1 5 0 10 -1 13 -8 20
-11 59 -11 150 -1 130 4 171 41 305 6 22 13 49 15 59 3 11 21 54 40 95 132
277 358 477 643 570 93 31 112 35 154 39 26 2 26 1 26 -60z m437 36 c92 -24
182 -62 260 -111 11 -7 27 -15 35 -19 30 -14 126 -93 179 -145 48 -48 113
-128 149 -184 23 -36 112 -224 112 -237 0 -7 7 -31 14 -53 8 -22 17 -59 20
-81 4 -22 9 -51 12 -64 7 -34 7 -249 -1 -280 -3 -14 -8 -41 -10 -60 -5 -51
-53 -196 -87 -265 -129 -258 -346 -452 -613 -549 -45 -16 -67 -20 -72 -13 -4
6 -7 197 -8 424 l-1 413 25 8 26 9 0 176 c0 112 -3 177 -10 178 -5 1 -18 1
-27 0 -14 -2 -18 6 -19 31 0 18 -2 83 -3 143 -2 61 -4 111 -6 113 -1 1 -3 5
-4 10 -2 4 -7 18 -14 32 -45 102 -47 113 -47 257 1 107 -3 144 -12 147 -9 4
-13 28 -13 75 l0 71 33 -7 c17 -3 55 -11 82 -19z m-382 -1132 c63 -83 67 -87
102 -86 22 1 42 9 50 21 8 10 36 48 62 85 26 37 51 67 54 68 3 0 6 -28 6 -62
1 -106 3 -119 12 -114 10 7 11 -29 14 -728 3 -437 1 -492 -14 -520 -9 -17 -15
-46 -13 -64 l2 -32 -169 0 -170 0 4 27 c2 15 -4 47 -14 73 -15 41 -16 96 -13
635 2 325 7 601 10 615 4 14 6 58 6 98 0 39 1 72 3 72 2 0 32 -39 68 -88z"/>
<path d="M1411 2459 c-15 -6 -17 -21 -16 -127 2 -144 14 -173 90 -212 42 -21
65 -25 148 -27 137 -3 210 26 247 97 15 28 22 258 8 266 -11 7 -127 9 -133 2
-3 -2 -5 -48 -6 -101 -1 -124 -11 -139 -97 -145 -54 -4 -63 -2 -85 20 -23 23
-25 32 -24 121 0 53 -2 100 -6 103 -9 9 -104 11 -126 3z"/>
<path d="M2852 2468 c-128 -13 -192 -73 -192 -179 0 -108 48 -169 149 -190 69
-14 178 -7 221 15 43 21 50 20 50 -4 0 -17 7 -20 39 -20 l39 0 0 105 0 105
-32 1 c-214 6 -226 4 -223 -39 2 -25 6 -27 45 -28 61 -2 70 -5 42 -14 -37 -12
-103 -11 -139 1 -50 18 -57 93 -11 116 33 17 121 16 145 -1 21 -14 165 -18
165 -3 0 4 0 13 0 21 0 24 -52 78 -90 94 -51 21 -125 28 -208 20z"/>
</g>
</svg>
